<svg id="Layer_1" enable-background="new 0 0 512 512" height="512" viewBox="0 0 512 512" width="512" xmlns="http://www.w3.org/2000/svg"><g><g><path d="m394.37 343.387-322.823 59.305c-5.631 1.034-11.034-2.692-12.069-8.323l-59.306-322.822c-1.034-5.631 2.692-11.034 8.323-12.069l322.823-59.305c5.631-1.034 11.034 2.692 12.069 8.323l59.306 322.823c1.034 5.63-2.692 11.033-8.323 12.068z" fill="#ffd88f"/><path d="m402.692 331.318-59.305-322.823c-1.034-5.631-6.438-9.357-12.069-8.323l-41.465 7.618c5.631-1.035 11.034 2.692 12.069 8.322l59.306 322.823c1.034 5.631-2.692 11.034-8.323 12.069l41.465-7.617c5.631-1.035 9.357-6.438 8.322-12.069z" fill="#ffc963"/><path d="m64.783 64.783h273.299v273.299h-273.299z" fill="#59a1a5" transform="matrix(.181 .984 -.984 .181 363.154 -33.08)"/></g><g><g><path d="m448.166 511.868-324.107-51.829c-5.653-.904-9.503-6.22-8.599-11.873l51.829-324.107c.904-5.653 6.22-9.503 11.873-8.599l324.107 51.829c5.653.904 9.503 6.22 8.599 11.873l-51.829 324.107c-.904 5.653-6.22 9.503-11.873 8.599z" fill="#fff7e8"/><path d="m503.269 167.289-41.465-6.631c5.653.904 9.503 6.22 8.599 11.873l-51.829 324.108c-.904 5.651-6.215 9.5-11.866 8.6l41.458 6.63c5.653.904 10.969-2.946 11.873-8.599l51.829-324.107c.904-5.655-2.946-10.97-8.599-11.874z" fill="#fff1d6"/><path d="m177.014 177.015h273.299v273.299h-273.299z" fill="#b5e8e0" transform="matrix(-.158 .988 -.988 -.158 672.922 53.466)"/></g><g><path d="m299.763 449.827 17.514-109.523c.678-4.241-2.209-8.227-6.45-8.906-4.234-.668-8.226 2.21-8.905 6.45l-17.514 109.523z" fill="#59a1a5"/><path d="m354.084 411.929c-29.904 17.634-55.895 1.543-55.895 1.543s-.56-31.087 28.403-48.165c29.669-17.495 55.895-1.543 55.895-1.543s.089 31.365-28.403 48.165z" fill="#59a1a5"/><path d="m335.265 361.063c3.666 1.43 5.756 2.701 5.756 2.701s.089 31.365-28.403 48.165c-2.949 1.739-5.857 3.139-8.709 4.27 9.269 3.671 28.713 8.386 50.174-4.27 28.491-16.8 28.403-48.165 28.403-48.165s-21.299-12.943-47.221-2.701z" fill="#419296"/><path d="m244.615 394.424c22.914 26.08 52.626 18.896 52.626 18.896s10.226-29.362-11.966-54.62c-22.733-25.875-52.626-18.897-52.626-18.897s-9.866 29.773 11.966 54.621z" fill="#59a1a5"/><path d="m309.59 339.141c-33.194-5.308-55.8-36.521-50.492-69.715l9.008-56.33 24.88 37.148 35.224-27.537 24.88 37.148 35.224-27.537-9.008 56.33c-5.31 33.195-36.522 55.801-69.716 50.493z" fill="#ff7893"/><g><path d="m353.089 259.855-8.593-12.831-6.656 41.624c-3.617 22.617-19.264 40.308-39.365 47.614 3.546 1.28 7.255 2.261 11.115 2.879 33.194 5.308 64.407-17.298 69.715-50.492l9.008-56.33z" fill="#ff5e7f"/></g></g></g></g></svg>