<svg id="Filled" height="512" viewBox="0 0 512 512" width="512" xmlns="http://www.w3.org/2000/svg"><path d="m408 488h-304a32 32 0 0 1 -32-32v-400a32 32 0 0 1 32-32h240l96 96v336a32 32 0 0 1 -32 32z" fill="#e9eef2"/><circle cx="256" cy="360" fill="#c3c6c7" r="16"/><path d="m440 120h-64a32 32 0 0 1 -32-32v-64z" fill="#c3c6c7"/><path d="m256 336a24 24 0 1 0 24 24 24.027 24.027 0 0 0 -24-24zm0 32a8 8 0 1 1 8-8 8.009 8.009 0 0 1 -8 8z"/><path d="m448 120a8 8 0 0 0 -2.343-5.657l-96-96a8 8 0 0 0 -5.657-2.343h-240a40.045 40.045 0 0 0 -40 40v400a40.045 40.045 0 0 0 40 40h304a40.045 40.045 0 0 0 40-40zm-96-76.687 68.687 68.687h-44.687a24.027 24.027 0 0 1 -24-24zm80 412.687a24.028 24.028 0 0 1 -24 24h-304a24.028 24.028 0 0 1 -24-24v-400a24.028 24.028 0 0 1 24-24h232v56a40.045 40.045 0 0 0 40 40h56z"/><path d="m256 160a64.072 64.072 0 0 0 -64 64 8 8 0 0 0 16 0 48 48 0 1 1 48 48 8 8 0 0 0 -8 8v32a8 8 0 0 0 16 0v-24.5a64 64 0 0 0 -8-127.5z"/></svg>